<mxfile host="app.diagrams.net" modified="2023-11-05T18:50:46.252Z" agent="Mozilla/5.0 (Windows NT 10.0; Win64; x64) AppleWebKit/537.36 (KHTML, like Gecko) Chrome/118.0.0.0 Safari/537.36" etag="dcDhElSq6c0CJ-m7rPw8" version="22.0.8" type="device" pages="2">
  <diagram name="Page-1" id="2YBvvXClWsGukQMizWep">
    <mxGraphModel dx="618" dy="1695" grid="1" gridSize="10" guides="1" tooltips="1" connect="1" arrows="1" fold="1" page="1" pageScale="1" pageWidth="850" pageHeight="1100" math="0" shadow="0">
      <root>
        <mxCell id="0" />
        <mxCell id="1" parent="0" />
        <mxCell id="PgSkcJJ-yq-t7G6vk1vk-3" value="обращение к сайту" style="edgeStyle=orthogonalEdgeStyle;rounded=0;orthogonalLoop=1;jettySize=auto;html=1;entryX=0.5;entryY=0;entryDx=0;entryDy=0;" edge="1" parent="1" source="PgSkcJJ-yq-t7G6vk1vk-1" target="PgSkcJJ-yq-t7G6vk1vk-2">
          <mxGeometry relative="1" as="geometry" />
        </mxCell>
        <mxCell id="PgSkcJJ-yq-t7G6vk1vk-1" value="Клиент" style="rounded=0;whiteSpace=wrap;html=1;" vertex="1" parent="1">
          <mxGeometry x="30" y="50" width="120" height="40" as="geometry" />
        </mxCell>
        <mxCell id="PgSkcJJ-yq-t7G6vk1vk-5" value="идентификация пользователя" style="edgeStyle=orthogonalEdgeStyle;rounded=0;orthogonalLoop=1;jettySize=auto;html=1;entryX=0;entryY=0.5;entryDx=0;entryDy=0;" edge="1" parent="1" source="PgSkcJJ-yq-t7G6vk1vk-2" target="PgSkcJJ-yq-t7G6vk1vk-4">
          <mxGeometry relative="1" as="geometry" />
        </mxCell>
        <mxCell id="PgSkcJJ-yq-t7G6vk1vk-7" value="клиент формирует заявку" style="edgeStyle=orthogonalEdgeStyle;rounded=0;orthogonalLoop=1;jettySize=auto;html=1;entryX=0;entryY=0.5;entryDx=0;entryDy=0;" edge="1" parent="1" source="PgSkcJJ-yq-t7G6vk1vk-2" target="PgSkcJJ-yq-t7G6vk1vk-6">
          <mxGeometry relative="1" as="geometry" />
        </mxCell>
        <mxCell id="PgSkcJJ-yq-t7G6vk1vk-2" value="Сайт провайдера с тарифами и личным кабинетом" style="rounded=0;whiteSpace=wrap;html=1;" vertex="1" parent="1">
          <mxGeometry x="30" y="140" width="120" height="60" as="geometry" />
        </mxCell>
        <mxCell id="PgSkcJJ-yq-t7G6vk1vk-4" value="База данных клиентов" style="rounded=0;whiteSpace=wrap;html=1;" vertex="1" parent="1">
          <mxGeometry x="365" y="200" width="120" height="60" as="geometry" />
        </mxCell>
        <mxCell id="PgSkcJJ-yq-t7G6vk1vk-9" value="заявка поступает исполнителю" style="edgeStyle=orthogonalEdgeStyle;rounded=0;orthogonalLoop=1;jettySize=auto;html=1;entryX=1;entryY=0.5;entryDx=0;entryDy=0;" edge="1" parent="1" source="PgSkcJJ-yq-t7G6vk1vk-6" target="PgSkcJJ-yq-t7G6vk1vk-8">
          <mxGeometry relative="1" as="geometry">
            <mxPoint x="480" y="60" as="targetPoint" />
            <Array as="points">
              <mxPoint x="420" y="90" />
              <mxPoint x="330" y="90" />
              <mxPoint x="330" y="-10" />
            </Array>
          </mxGeometry>
        </mxCell>
        <mxCell id="PgSkcJJ-yq-t7G6vk1vk-6" value="заявка на подключение" style="rounded=0;whiteSpace=wrap;html=1;" vertex="1" parent="1">
          <mxGeometry x="365" y="120" width="120" height="60" as="geometry" />
        </mxCell>
        <mxCell id="PgSkcJJ-yq-t7G6vk1vk-10" value="назначает день для проведения работ" style="edgeStyle=orthogonalEdgeStyle;rounded=0;orthogonalLoop=1;jettySize=auto;html=1;entryX=0.5;entryY=0;entryDx=0;entryDy=0;" edge="1" parent="1" source="PgSkcJJ-yq-t7G6vk1vk-8" target="PgSkcJJ-yq-t7G6vk1vk-1">
          <mxGeometry relative="1" as="geometry" />
        </mxCell>
        <mxCell id="PgSkcJJ-yq-t7G6vk1vk-8" value="исполнитель" style="rounded=0;whiteSpace=wrap;html=1;" vertex="1" parent="1">
          <mxGeometry x="280" y="-60" width="120" height="60" as="geometry" />
        </mxCell>
      </root>
    </mxGraphModel>
  </diagram>
  <diagram id="_P-_kS7ifZ-rV77bLaua" name="Страница — 2">
    <mxGraphModel dx="1006" dy="714" grid="1" gridSize="10" guides="1" tooltips="1" connect="1" arrows="1" fold="1" page="1" pageScale="1" pageWidth="827" pageHeight="1169" math="0" shadow="0">
      <root>
        <mxCell id="0" />
        <mxCell id="1" parent="0" />
        <mxCell id="YL3ub4jjKPsNlorI7tkt-7" style="edgeStyle=orthogonalEdgeStyle;rounded=0;orthogonalLoop=1;jettySize=auto;html=1;entryX=0;entryY=0.5;entryDx=0;entryDy=0;" edge="1" parent="1" source="YL3ub4jjKPsNlorI7tkt-1" target="YL3ub4jjKPsNlorI7tkt-6">
          <mxGeometry relative="1" as="geometry" />
        </mxCell>
        <mxCell id="YL3ub4jjKPsNlorI7tkt-1" value="вход на сайт" style="ellipse;whiteSpace=wrap;html=1;" vertex="1" parent="1">
          <mxGeometry x="60" y="180" width="80" height="80" as="geometry" />
        </mxCell>
        <mxCell id="YL3ub4jjKPsNlorI7tkt-5" style="edgeStyle=orthogonalEdgeStyle;rounded=0;orthogonalLoop=1;jettySize=auto;html=1;entryX=0;entryY=0.5;entryDx=0;entryDy=0;" edge="1" parent="1" source="YL3ub4jjKPsNlorI7tkt-2" target="YL3ub4jjKPsNlorI7tkt-4">
          <mxGeometry relative="1" as="geometry" />
        </mxCell>
        <mxCell id="YL3ub4jjKPsNlorI7tkt-2" value="заполнение формы на подключение&amp;nbsp;" style="rounded=1;whiteSpace=wrap;html=1;" vertex="1" parent="1">
          <mxGeometry x="354" y="320" width="120" height="60" as="geometry" />
        </mxCell>
        <mxCell id="YL3ub4jjKPsNlorI7tkt-4" value="Отправка заявки исполнителю" style="rounded=1;whiteSpace=wrap;html=1;" vertex="1" parent="1">
          <mxGeometry x="550" y="320" width="120" height="60" as="geometry" />
        </mxCell>
        <mxCell id="YL3ub4jjKPsNlorI7tkt-8" style="edgeStyle=orthogonalEdgeStyle;rounded=0;orthogonalLoop=1;jettySize=auto;html=1;entryX=0;entryY=0.5;entryDx=0;entryDy=0;" edge="1" parent="1" source="YL3ub4jjKPsNlorI7tkt-6" target="YL3ub4jjKPsNlorI7tkt-2">
          <mxGeometry relative="1" as="geometry" />
        </mxCell>
        <mxCell id="YL3ub4jjKPsNlorI7tkt-10" style="edgeStyle=orthogonalEdgeStyle;rounded=0;orthogonalLoop=1;jettySize=auto;html=1;entryX=0;entryY=0.5;entryDx=0;entryDy=0;" edge="1" parent="1" source="YL3ub4jjKPsNlorI7tkt-6" target="YL3ub4jjKPsNlorI7tkt-9">
          <mxGeometry relative="1" as="geometry" />
        </mxCell>
        <mxCell id="YL3ub4jjKPsNlorI7tkt-6" value="Вывод информации о тарифах, Личном кабинете" style="rounded=1;whiteSpace=wrap;html=1;" vertex="1" parent="1">
          <mxGeometry x="190" y="190" width="120" height="60" as="geometry" />
        </mxCell>
        <mxCell id="YL3ub4jjKPsNlorI7tkt-13" style="edgeStyle=orthogonalEdgeStyle;rounded=0;orthogonalLoop=1;jettySize=auto;html=1;entryX=0;entryY=0.5;entryDx=0;entryDy=0;" edge="1" parent="1" source="YL3ub4jjKPsNlorI7tkt-9" target="YL3ub4jjKPsNlorI7tkt-12">
          <mxGeometry relative="1" as="geometry" />
        </mxCell>
        <mxCell id="YL3ub4jjKPsNlorI7tkt-9" value="Вход в личный кабинет&amp;nbsp;" style="rounded=1;whiteSpace=wrap;html=1;" vertex="1" parent="1">
          <mxGeometry x="380" y="70" width="120" height="60" as="geometry" />
        </mxCell>
        <mxCell id="YL3ub4jjKPsNlorI7tkt-15" value="да" style="edgeStyle=orthogonalEdgeStyle;rounded=0;orthogonalLoop=1;jettySize=auto;html=1;entryX=0;entryY=0.5;entryDx=0;entryDy=0;" edge="1" parent="1" source="YL3ub4jjKPsNlorI7tkt-12" target="YL3ub4jjKPsNlorI7tkt-14">
          <mxGeometry relative="1" as="geometry" />
        </mxCell>
        <mxCell id="YL3ub4jjKPsNlorI7tkt-17" value="нет" style="edgeStyle=orthogonalEdgeStyle;rounded=0;orthogonalLoop=1;jettySize=auto;html=1;entryX=0.5;entryY=0;entryDx=0;entryDy=0;" edge="1" parent="1" source="YL3ub4jjKPsNlorI7tkt-12" target="YL3ub4jjKPsNlorI7tkt-2">
          <mxGeometry x="-0.7753" relative="1" as="geometry">
            <mxPoint x="590" y="200" as="targetPoint" />
            <Array as="points">
              <mxPoint x="590" y="210" />
              <mxPoint x="414" y="210" />
            </Array>
            <mxPoint as="offset" />
          </mxGeometry>
        </mxCell>
        <mxCell id="YL3ub4jjKPsNlorI7tkt-12" value="есть договор?" style="rhombus;whiteSpace=wrap;html=1;" vertex="1" parent="1">
          <mxGeometry x="550" y="60" width="80" height="80" as="geometry" />
        </mxCell>
        <mxCell id="YL3ub4jjKPsNlorI7tkt-14" value="показать информацию личного кабинета" style="rounded=1;whiteSpace=wrap;html=1;" vertex="1" parent="1">
          <mxGeometry x="680" y="70" width="120" height="60" as="geometry" />
        </mxCell>
      </root>
    </mxGraphModel>
  </diagram>
</mxfile>
